# xmcd
#
# Track frame offsets:
#	150
#	16175
#	28942
#	40549
#	56305
#	69685
#	83088
#	93609
#	107057
#	121626
#	132763
#	147755
#	159393
#	176513
#	186778
#	199225
#	213163
#	231247
#	244043
#	254529
#	280685
#
# Disc length: 3872 seconds
#
# Revision: 0
# Processed by: cddbd v1.5.2PL0 Copyright (c) Steve Scherf et al.
# Submitted via: audiograbber 1.83.01
#
DISCID=1a0f1e15
DTITLE=Various Artist - Chart Show --- Oldies CD1
DYEAR=2008
DGENRE=Oldies
TTITLE0=The Rubettes - Sugar Baby Love
TTITLE1=The Archies - Sugar Sugar
TTITLE2=Pat Boone - Speedy Gonzales
TTITLE3=Smokie - Living Next Door to Alice
TTITLE4=Middle of the Road - Chirpy Chirpy Cheep Cheep
TTITLE5=The Beach Boys - Sloop John B
TTITLE6=The Byrds - Mr. Tambourine Man
TTITLE7=Roy Orbison - Pretty Woman
TTITLE8=Sonny and Cher - I Got You Babe
TTITLE9=Dusty Springfield - Son of a Preacher Man
TTITLE10=David Dundas - Jeans On
TTITLE11=Chris Andrews - Yesterday Man
TTITLE12=The Sweet - Love is like oxygen
TTITLE13=Lesley Gore - It's my party
TTITLE14=The Spencer Davis Group - Keep on running
TTITLE15=The McCoys - Hang on Sloopy
TTITLE16=Norman Greenbaum - Spirit in the Sky
TTITLE17=Dave Edmunds - I hear you knocking
TTITLE18=Ricky Nelson - Hello Mary Lou
TTITLE19=Barry Ryan - Eloise
TTITLE20=Bill Haley and His Comets - Rock Around The Clock
EXTD=
EXTT0=
EXTT1=
EXTT2=
EXTT3=
EXTT4=
EXTT5=
EXTT6=
EXTT7=
EXTT8=
EXTT9=
EXTT10=
EXTT11=
EXTT12=
EXTT13=
EXTT14=
EXTT15=
EXTT16=
EXTT17=
EXTT18=
EXTT19=
EXTT20=
PLAYORDER=
